<svg xmlns:xlink="http://www.w3.org/1999/xlink" id="Ebene_1" data-name="Ebene 1" xmlns="http://www.w3.org/2000/svg" viewBox="0 0 141.73 163.29" width="141.73"  height="163.29" ><defs><style>.cls-1{fill:#00173a;}.cls-2{fill:#005ca9;}.cls-3{fill:#b0bfff;}</style></defs><polygon class="cls-1" points="80.88 75.56 21.8 92.32 21.89 93.58 77.64 77.77 80.69 126.71 83.99 125.44 80.88 75.56"/><polygon class="cls-1" points="76.38 66.11 79.8 65.15 73.45 19.86 14.23 18.1 14.48 20.41 70.2 22.07 76.38 66.11"/><path class="cls-1" d="M19.2,161.08s.06-1.78.05-5.15c0-3-13.72-126.87-15.75-145.24L0,10.62s16,144.3,16,147.52c0,3.37-.05,5.15-.05,5.15l122.54-47.11c0-.32,0-.63,0-1Z"/><polygon class="cls-1" points="128.63 51.86 131.99 50.95 129.55 21.07 83.99 20.13 84.23 22.41 126.31 23.28 128.63 51.86"/><polygon class="cls-1" points="132.6 60.95 89.53 73.26 89.59 74.52 129.35 63.16 129.68 108.27 132.93 107.06 132.6 60.95"/><path class="cls-2" d="M3.25,8.41l135.82,2.46s2.48,48.71,2.66,103.11L19.2,161.08s.06-1.78.05-5.15C19.24,152.71,3.25,8.41,3.25,8.41ZM21,81.64,79.8,65.15,73.45,19.86,14.23,18.1ZM88.45,62.71,132,51l-2.44-29.88L84,20.13ZM25.45,148,84,125.44,80.88,75.56,21.8,92.32Zm66.38-25.6,41.1-15.36L132.6,61,89.54,73.26Z"/><path class="cls-3" d="M18.4,19.54,49.91,1.36,20.52,21.13,61.65,33.18l-40.6-9.55L43.7,49l-22-22.57,12,21.36L19.76,26.74l5.38,21.51L17.26,24.62l-2,8V24.62S9.53,27.5,9.76,27.19,15,21.59,15,21.59L3.25,10,15.9,20.53l-4.4-7.65,5.38,6.74L10.52,0Z"/></svg>